<?xml version="1.0" standalone="no"?><!DOCTYPE svg PUBLIC "-//W3C//DTD SVG 1.1//EN" "http://www.w3.org/Graphics/SVG/1.1/DTD/svg11.dtd"><svg class="icon" width="16px" height="16.00px" viewBox="0 0 1024 1024" version="1.1" xmlns="http://www.w3.org/2000/svg"><path d="M512 281.6c-71.68 0-128 56.32-128 128s56.32 128 128 128 128-56.32 128-128-56.32-128-128-128z m0 204.8c-43.52 0-76.8-33.28-76.8-76.8s33.28-76.8 76.8-76.8 76.8 33.28 76.8 76.8-33.28 76.8-76.8 76.8z m0-384C343.04 102.4 204.8 240.64 204.8 409.6c0 128 256 512 307.2 512s307.2-384 307.2-512c0-168.96-138.24-307.2-307.2-307.2z m0 742.4c-43.52 0-256-327.68-256-435.2 0-140.8 115.2-256 256-256s256 115.2 256 256c0 104.96-215.04 435.2-256 435.2z" fill="#e6e6e6" /></svg>