<?xml version="1.0" encoding="utf-8"?>
<!-- Generator: Adobe Illustrator 19.2.1, SVG Export Plug-In . SVG Version: 6.00 Build 0)  -->
<svg version="1.1" id="图层_1" xmlns="http://www.w3.org/2000/svg" xmlns:xlink="http://www.w3.org/1999/xlink" x="0px" y="0px"
	 viewBox="0 0 32 50" style="enable-background:new 0 0 32 50;" xml:space="preserve">
<style type="text/css">
	.st0{fill:none;}
	.st1{display:none;}
	.st2{display:inline;fill:none;}
	.st3{fill:none;stroke:#FFFFFF;stroke-width:2;}
</style>
<g>
	<title>background</title>
	<rect id="canvas_background" x="-1" y="-1" class="st0" width="34" height="52"/>
	<g id="canvasGrid" class="st1">
		<rect y="0" class="st2" width="32" height="50"/>
	</g>
</g>
<g>
	<title>Layer 1</title>
	<path id="svg_1" class="st3" d="M16,3C8.9,3,3.1,8.8,3.1,15.9c0,5.4,7.4,20.5,11,27.5c1.1,2.2,2.6,2.2,3.8,0c3.6-7,11-22.1,11-27.5
		C28.9,8.8,23.1,3,16,3z M16,22c-3.4,0-6.2-2.8-6.2-6.2s2.8-6.2,6.2-6.2s6.2,2.8,6.2,6.2S19.4,22,16,22z"/>
</g>
</svg>
